<svg width="475" height="304" viewBox="0 0 475 304" fill="none" xmlns="http://www.w3.org/2000/svg">
<path d="M0 100C0 52.8595 0 29.2893 14.6447 14.6447C29.2893 0 52.8595 0 100 0H375C422.14 0 445.711 0 460.355 14.6447C475 29.2893 475 52.8596 475 100V172.988C475 175.32 475 176.487 474.946 177.472C473.941 195.803 459.303 210.441 440.972 211.446C439.987 211.5 438.82 211.5 436.488 211.5C433.249 211.5 431.63 211.5 430.262 211.575C404.802 212.972 384.471 233.302 383.075 258.762C383 260.13 383 261.806 383 265.157C383 267.765 383 269.069 382.937 270.136C381.855 288.337 367.337 302.855 349.136 303.937C348.069 304 346.806 304 344.279 304H100C52.8595 304 29.2893 304 14.6447 289.355C0 274.711 0 251.14 0 204V100Z" fill="#47C0F4"/>
<circle cx="39.5" cy="39.5" r="39.5" transform="matrix(-1 0 0 1 475 225)" fill="#47C0F4"/>
<path d="M428.763 271.236L442.236 257.764M442.236 257.764L442.236 268.991M442.236 257.764L431.009 257.764" stroke="white" stroke-width="2" stroke-linecap="round" stroke-linejoin="round"/>
</svg>
