<svg width="66" height="65" viewBox="0 0 66 65" fill="none" xmlns="http://www.w3.org/2000/svg">
<ellipse cx="33" cy="32.5" rx="33" ry="32.5" fill="#7347EF"/>
<path d="M43.9997 30.8763C44.0374 26.108 40.1701 21.737 35.3796 21.1319C35.2838 21.1204 35.1802 21.1022 35.0703 21.0824C34.8295 21.034 34.5853 21.0065 34.3402 21C33.3573 21 33.0951 21.7255 33.026 22.1558C32.9585 22.5763 33.0228 22.9307 33.216 23.2061C33.541 23.6694 34.1141 23.7519 34.5741 23.8178C34.7076 23.8376 34.8348 23.8557 34.9416 23.8805C39.2469 24.8912 40.6961 26.479 41.4043 30.9621C41.4215 31.0709 41.4294 31.2061 41.4388 31.3495C41.4702 31.8854 41.533 33 42.6745 33C42.7687 33 42.8724 32.9918 42.9791 32.9753C44.0405 32.8054 44.0076 31.7865 43.9919 31.2968C43.9872 31.1583 43.9825 31.028 43.995 30.9406C43.9975 30.9188 43.9986 30.8967 43.9982 30.8747L43.9997 30.8763Z" fill="white"/>
<path d="M33.99 19.5526C34.1173 19.562 34.2353 19.5714 34.3346 19.5854C41.3238 20.6667 44.5382 23.9948 45.4276 31.0754C45.4431 31.1955 45.4462 31.3422 45.4478 31.4967C45.4571 32.0506 45.4757 33.2021 46.705 33.2255H46.7423C47.1287 33.2255 47.4345 33.1084 47.6549 32.8775C48.0367 32.4765 48.0119 31.8789 47.9886 31.3984C47.984 31.2798 47.9793 31.169 47.9793 31.0707C48.0693 23.831 41.8329 17.2637 34.6373 17.0203C34.6062 17.0203 34.5783 17.0203 34.5504 17.025C34.522 17.0286 34.4935 17.0301 34.465 17.0296C34.392 17.0296 34.3051 17.0234 34.2104 17.0172C34.0987 17.0094 33.9699 17 33.8379 17C32.6925 17 32.4752 17.8192 32.4472 18.3075C32.3836 19.4356 33.4685 19.5152 33.99 19.5526ZM45.0908 40.2265C44.9408 40.1119 44.7923 39.9954 44.6453 39.877C43.8817 39.2591 43.0699 38.6912 42.2861 38.1404L41.7972 37.7971C40.7914 37.0872 39.8881 36.7424 39.0344 36.7424C37.8828 36.7424 36.8801 37.3821 36.0513 38.6412C35.6849 39.1998 35.2395 39.4713 34.6916 39.4713C34.311 39.4579 33.9376 39.3638 33.5958 39.1951C30.3519 37.716 28.033 35.4473 26.7075 32.4531C26.0665 31.0052 26.2744 30.0596 27.4013 29.2888C28.0423 28.852 29.2328 28.0391 29.1505 26.4803C29.0543 24.7125 25.1724 19.3904 23.5365 18.7865C22.8371 18.5301 22.0705 18.5279 21.3697 18.7803C19.4901 19.4153 18.1429 20.5325 17.4677 22.007C16.8158 23.4331 16.8469 25.1073 17.5515 26.8486C19.5926 31.8836 22.4609 36.2743 26.0789 39.8973C29.6193 43.4438 33.9714 46.3475 39.0127 48.5304C39.4675 48.7269 39.944 48.8346 40.2932 48.9126C40.4112 48.9391 40.5136 48.9626 40.5881 48.9828C40.6291 48.9939 40.6714 48.9997 40.7138 49H40.7542C43.1258 49 45.974 46.8218 46.8478 44.3394C47.6145 42.1644 46.2145 41.0893 45.0908 40.2265ZM35.0393 25.3054C34.6342 25.3148 33.7883 25.3366 33.4918 26.201C33.3521 26.6067 33.3692 26.9562 33.5415 27.2449C33.7929 27.6661 34.2756 27.7972 34.7133 27.869C36.3042 28.1249 37.1222 29.008 37.2852 30.651C37.3612 31.4155 37.875 31.9507 38.5315 31.9507C38.5814 31.9506 38.6311 31.9475 38.6805 31.9413C39.4721 31.8477 39.8555 31.2626 39.8214 30.2032C39.8338 29.0985 39.2595 27.844 38.2801 26.8454C37.2992 25.8437 36.1164 25.2789 35.0393 25.3054Z" fill="white"/>
</svg>
