<svg width="66" height="65" viewBox="0 0 66 65" fill="none" xmlns="http://www.w3.org/2000/svg">
<ellipse cx="33" cy="32.5" rx="33" ry="32.5" fill="#47C0F3"/>
<path d="M44.7406 19.2384C44.7406 19.2384 47.7008 18.0697 47.4541 20.908C47.3719 22.0767 46.6319 26.1672 46.0563 30.5916L44.0828 43.698C44.0828 43.698 43.9184 45.618 42.4382 45.9519C40.9581 46.2858 38.7379 44.7832 38.3267 44.4493C37.9978 44.1989 32.1597 40.4422 30.1039 38.6057C29.5283 38.1048 28.8704 37.103 30.1861 35.9343L38.8202 27.5864C39.8069 26.5846 40.7936 24.2472 36.6822 27.0855L25.1702 35.0161C25.1702 35.0161 23.8545 35.8508 21.3877 35.0996L16.0428 33.4299C16.0428 33.4299 14.0693 32.1778 17.4407 30.9255C25.6636 27.0019 35.7777 22.9949 44.7406 19.2384Z" fill="white"/>
</svg>
